<svg xmlns="http://www.w3.org/2000/svg" xmlns:xlink="http://www.w3.org/1999/xlink" width="96" height="96" viewBox="0 0 96 96">
  <defs>
    <clipPath id="clip-Artboard_1">
      <rect width="96" height="96"/>
    </clipPath>
  </defs>
  <g id="Artboard_1" data-name="Artboard – 1" clip-path="url(#clip-Artboard_1)">
    <g id="Group_47" data-name="Group 47" transform="translate(-363 -3039)">
      <g id="Path_17" data-name="Path 17" transform="translate(363 3039)" fill="none">
        <path d="M0,0H96V96H0Z" stroke="none"/>
        <path d="M 8 8 L 8 88 L 88 88 L 88 8 L 8 8 M 0 0 L 96 0 L 96 96 L 0 96 L 0 0 Z" stroke="none" fill="#fff"/>
      </g>
      <path id="logo" d="M41.926,24.774c0,2.62,3.335,3.573,11.911,5.717,10,2.382,13.34,4.526,13.34,12.387a15.642,15.642,0,0,1-.953,5.955L55.027,47.4c0-.476.238-1.191.238-1.906,0-2.859-1.191-4.05-7.146-5.479-8.576-2.144-17.628-3.335-17.628-14.769,0-10.958,6.67-15.96,19.057-15.96,6.194,0,15.484,2.144,15.484,2.144l-.476,9.529s-10-1.429-14.055-1.429c-7.146-.476-8.576,1.191-8.576,5.241m-11.911,16.2L40.973,42.4c0,.476-.238.953-.238,1.429,0,3.573.953,4.05,5.241,5.241,14.293,4.288,20.248,4.764,20.248,16.2s-5.717,15.96-19.057,15.96c-6.194,0-16.2-1.906-16.2-1.906L32.159,69.8a136.289,136.289,0,0,0,14.293,1.429c5.955,0,8.576-1.429,8.576-5,0-3.335-2.859-4.05-12.387-6.432-9.767-2.382-13.578-5.955-13.578-12.864a12.573,12.573,0,0,1,.953-5.955M96,0H0V89.092H96Z" transform="translate(363 3042.61)" fill="#fff"/>
    </g>
  </g>
</svg>