<svg xmlns="http://www.w3.org/2000/svg" xmlns:xlink="http://www.w3.org/1999/xlink" width="80" height="80" viewBox="0 0 80 80">
  <defs>
    <clipPath id="clip-logo">
      <rect width="80" height="80"/>
    </clipPath>
  </defs>
  <g id="logo" clip-path="url(#clip-logo)">
    <rect width="80" height="80" fill="#fff"/>
    <g id="Path_15" data-name="Path 15" fill="none">
      <path d="M0,0H80V80H0Z" stroke="none"/>
      <path d="M 4 4 L 4 76 L 76 76 L 76 4 L 4 4 M 0 0 L 80 0 L 80 80 L 0 80 L 0 0 Z" stroke="none" fill="#a0ce57"/>
    </g>
    <path id="logo-2" data-name="logo" d="M34.938,20.645c0,2.184,2.779,2.978,9.926,4.764C53.2,27.395,55.98,29.181,55.98,35.732a13.035,13.035,0,0,1-.794,4.963L45.856,39.5c0-.4.2-.993.2-1.588,0-2.382-.993-3.375-5.955-4.566-7.146-1.787-14.69-2.779-14.69-12.308,0-9.132,5.558-13.3,15.881-13.3,5.161,0,12.9,1.787,12.9,1.787l-.4,7.94s-8.337-1.191-11.712-1.191c-5.955-.4-7.146.993-7.146,4.367m-9.926,13.5,9.132,1.191c0,.4-.2.794-.2,1.191,0,2.978.794,3.375,4.367,4.367,11.911,3.573,16.873,3.97,16.873,13.5s-4.764,13.3-15.881,13.3a94.076,94.076,0,0,1-13.5-1.588l.993-7.94A113.574,113.574,0,0,0,38.71,59.355c4.963,0,7.146-1.191,7.146-4.169,0-2.779-2.382-3.375-10.323-5.36-8.139-1.985-11.315-4.963-11.315-10.72a10.477,10.477,0,0,1,.794-4.963M80,0H0V74.243H80Z" transform="translate(0 2.61)" fill="#a0ce57"/>
  </g>
</svg>